<svg xmlns="http://www.w3.org/2000/svg" width="144" height="144" viewBox="0 0 144 144" version="1.1">
	<path d="M 30.240 60.106 L 30.500 108.130 48.963 116.065 C 59.117 120.429, 67.784 124, 68.223 124 C 68.661 124, 68.903 102.535, 68.760 76.299 L 68.500 28.598 56 23.219 C 49.125 20.260, 40.458 16.544, 36.740 14.960 L 29.981 12.081 30.240 60.106 M 94.500 20.435 L 75.500 28.585 75.240 76.293 C 75.097 102.532, 75.322 124.003, 75.740 124.006 C 76.725 124.013, 112.261 108.881, 113.260 108.029 C 113.678 107.672, 113.903 85.984, 113.760 59.832 L 113.500 12.284 94.500 20.435 M 12 78 L 12 126 37.667 126 C 51.783 126, 63.134 125.801, 62.891 125.558 C 62.648 125.314, 54.585 121.748, 44.974 117.632 L 27.500 110.149 27.239 70.074 L 26.977 30 19.489 30 L 12 30 12 78 M 116.761 70.074 L 116.500 110.149 99.026 117.632 C 89.415 121.748, 81.352 125.314, 81.109 125.558 C 80.866 125.801, 92.217 126, 106.333 126 L 132 126 132 78 L 132 30 124.511 30 L 117.023 30 116.761 70.074" stroke="none" fill="black" fill-rule="evenodd"/>
</svg>